<svg xmlns="http://www.w3.org/2000/svg" viewBox="0 0 541.56 562.7">
  <defs>
    <!-- <style>
    .active {
      fill:#2563EB;
    }

    .cls-1{
      fill:#1d1d1b;
    }

    .branch {
      transition-property:fill;
      transition-duration: 150ms;
    }
    </style> -->
  </defs>
  <g>
    <path id="chere_cecilia_rush20" class="cls-1 branch branch-19" d="M435.44,328.33c1.32-2.49,12.2,6.9,14.75,9.07,4.38,3.74-.14,19,.19,21.65.72,5.75,3.9,9.3,5.66,12.3s2.69,2.51,5.54,6.31c1.81,2.41,3.2-1,5.66,3.1,1.52,2.53,3.23,2.86,6.12,4.78a12.82,12.82,0,0,0,4.29,2c1.85.42,4.25.44,12.24-2.72,6-2.37,6.08-2.95,7.47-2.72,3.65.62,5.92,5.1,8.84,10.88,3.09,6.1,2.94,8.36,5.44,9.51,3.21,1.49,5.23-1.44,8.83,0,2.78,1.12,2.58,3.26,6.8,8.16,3,3.44,4.44,5.16,6.79,6.11,2.72,1.11,2.12,1.19,9.82,0,4.58-.71,33.22-5.51,33.22-5.51,5.29-1,37.09-23.69,37.53-23.11,1,1.27-7.34,9.7-9,10.24-7.12,2.35-21.59,15.08-29.66,16.55-9.25,1.68-42.88,8.23-46.13,7-2.17-.85-3.6-6.36-9.9-12.29-4.09-3.86-4.26,2.06-7,.37-5.53-3.49-6.59-1.94-10.19-4.76-5.34-4.19-1.16-13.44-5.71-15.71-3.31-1.66-8.2,4.92-13.32,4.84-5.41-.09-10.93-3.46-21.75-10.2-8-5-12.09-7.56-14.27-10.87-1.87-2.84-2.8-19.41-4.7-27.9C439.71,330.37,431.51,335.74,435.44,328.33Z" transform="translate(-161.16 -10.07)"/>
  </g>
  <g>
    <path id="chere_cecilia_rush19" class="cls-1 branch branch-18" d="M429.44,324.5c1.33-.79,10.76-2.05,13.05-1.73,3.05.42,6.29,6.68,10.08,8.72,4.75,2.56,6.46.44,10.44,3.21,2.6,1.82,2.08,2.87,5.22,4.82,2.07,1.29,3.62,1.66,4.82,3.42a7.28,7.28,0,0,1,1.21,3.61c.12.77,1,5.94,4.82,7.83,2.61,1.3,6.49,1,7.59.91.32,0,.6-.05,1-.1,3.8-.42,5.1-1,6-1,2.79-.1,4.06,4.46,8.43,10.45a37.27,37.27,0,0,0,9.73,9.92c5.21,3.4,6.43,1.69,10.82,5.17a45.61,45.61,0,0,1,8,8.93h0a52.42,52.42,0,0,0,12.69-3.76c1.6-.75,3.89-2.38,8.47-5.64,6.37-4.54,8.39-8.17,9.36-7.35.82.68,3.79-3.67,4.82-2.62s2,1.54,4.49-.36c2.87-2.22,2.94-.7,5.78-1.66,1.41-.47,2.26,1.79,2.35,2.12.29,1.07-15.81,3-19.28,12.22-.63,1.66.89,2,2,2.92,1.65,1.33,12.42,2,16.26-3.94,1.17-1.8,1.61-.18,2,.55s-1.52,3.63-6.16,5.33c-8.46,3.09-14.12-2-23.46.78a30.33,30.33,0,0,0-10.35,5.65c-3.14,2.8-3.28,4.41-5.64,5.17-4.12,1.32-5.33-2.15-8.2-5.57-2.71-3.21-5.55-4.2-8.26-7.13-2.54-2.76.64-1.89-5.61-5.45-3.75-2.14-8.64-4.44-11-7.05-3.68-4.14-4-9.54-7.09-12.32-2.05-1.81-4,2.62-12.06.37-7.63-2.11-11.48-3.21-13.17-5.17-3.06-3.56-.8-6.21-4.23-10.81a18.18,18.18,0,0,0-8.93-6.12c-5.51-1.69-8,.59-11.29-1.41C442.46,336.35,430.17,330.26,429.44,324.5Z" transform="translate(-161.16 -10.07)"/>
  </g>
  <g>
    <path id="chere_cecilia_rush18" class="cls-1 branch branch-17" d="M437.7,328.7c.05-1.28-6.09-11-3.23-12.5,1.89-1,13,3.44,18.41,5.92,2.38,1.1,4.52,3.31,7.78,4.06,4.69,1.07,9.76,2.11,11.63,3.82s4.75,2.93,6.48,4.14c2.23,1.58,1.61.93,4.44.54,3.7-.5,4.47-1.46,6-.78,2,.91,1.58,3.05,3.64,4.68.52.42,2.11,1.52,7.28,1,3.06-.28,4.45-.84,11.7-3.12,12.76-4,6.68-1.69,10.92-3.12,3.11-1.05,4-1.49,5.2-1,3.26,1.21,1.87,6.32,5.46,8.84,2.86,2,5.11-.27,10.14,1.56,3.07,1.12,3.82,2.55,6.5,4.42a26,26,0,0,0,16.38,4.42c7.72-.71,25.33-8.49,28.81-9.23,2.32-.48-1.32,2.08-1.25,2.73s-4.35,1.56-12.74,4.94a15.78,15.78,0,0,0-7,4.68c-.57.72-6.57-.53-5.77.86,1.26,2.21,12.51,3.46,12.79,4.34.2.64,3.44.06,0,1.35s-14.91-2.06-18.44-4c-4.63-2.6-14.82-6.45-18.53-8.07-12.12-5.32-14.32,1.8-17.59-3.8-1.74-3-.32-5.4-2.34-6.76-2.41-1.61-5.5,1.13-13.52,3.9-5.85,2-11.15,3.79-17.16,2.6-2.93-.57-2.33-1.12-7.8-2.86-6.79-2.15-8.21-1.47-13.52-3.12-7.46-2.31-6-4.07-12.74-6-6.42-1.81-8.47-.83-10.84-4.2C448.4,328.48,437.63,330.86,437.7,328.7Z" transform="translate(-161.16 -10.07)"/>
  </g>
  <g>
    <path id="chere_cecilia_rush17" class="cls-1 branch branch-16" d="M466.33,299.52c2.5-.85,15.46-2.83,20.23-2.64,6.51.27,6.42,4,12.45,4.78,5.74.77,10-.48,17.9-2.79,9.53-2.8,10.59-5,18.45-6.71,5.86-1.3,9.4-1,15.1-1.12a166.26,166.26,0,0,0,30.19-3.92c11.05-2.55,9.36-4.36,40.26-17.89,13.23-5.79,19.85-8.69,22.93-9.51,8.49-2.25,11.35-3.15,15.5-4.79,1.4-.55,13.15-5.23,16-6.9,7.38-4.24,8.89-4.49,12.94-7.2a61.87,61.87,0,0,0,8.89-6.17,20.88,20.88,0,0,0,4.51-4.9c.57-.86,0,.89.22,1.81.07.32.78.76.78.82,0,.27-18,15.51-42.37,26.71-15.9,7.29-32.28,12.16-30.08,14.07,10.18,8.83,18.55,7.05,25.9,4.07,2.56-1,3.69-4.38,8.2-4.17.85,0,5.87-3.15,6.15-1.95.21.92-6.1,3.66-7.25,4.41-9.56,6.25-17.57,6.83-17.57,6.83-9,.66-9.92-4.4-20.82-5.37-11.88-1.06-9.6,2.95-20.08,6.9-1,.37-5.67,2.85-.92,2.67,2.84-.11,17-1.32,20.15,0,.57.23,3.91-1.17,5.13-.8.72.22-.18,2.27-2.45,2.4-11,.65-1-1.53-20.44.56-7.54.81-43.27,5.41-71.72,14.79-2.4.8-12.07,6.43-19.66,7.6-13.87,2.13-35.37-4.62-39.63-4.33-17.81,1.19-27.44,3.67-27.8-.54C447.37,305,458.59,302.34,466.33,299.52Z" transform="translate(-161.16 -10.07)"/>
  </g>
  <g>
    <path id="chere_cecilia_rush16" class="cls-1 branch branch-15" d="M470.64,289.51c-3.23,1.74-21.17,13.53-20.38,15.31,1.05,2.38,12.31-6.59,28.47-7.18,9.66-.36,37.27-2.26,42.51-3.08,7.64-1.2,1.94-2.44,9-5.7S541,284,543.23,281.47a96,96,0,0,1,7.29-7.53c1.07-2.23,1.2-7.6,2.68-8.54,3.13-2,7.2,0,12.58-.57,5.65-.56,9.86-4.46,11.83-6.28,2.5-2.32,1.9-2.7,4.8-5.55,3.19-3.12,4.91-3.66,9.62-7,5-3.6,7.54-5.4,9.24-7.76,4.16-5.81,1.26-6.1,5-10.5,1-1.21,1.56-4,11-8.35,1.95-.9,3.1-3.42,5.07-4.28,2.73-1.19,8.57-1.89,8.54-2.38,0-.88.76-3.3-2.71-2.83-1.81.24-3.61.27-8.74,3.15-6.2,3.47-13.13,9.33-13.73,8.88-1.25-.93,2.9-8.83,5.22-14.38,3.44-8.23,2.84-5.53,2.29-5.95-.83-.63-.45,1.14-8.27,4.19-1.37.53,3.3-2.11-2.3,12C599.51,225.52,597,232.64,596,234c-2.85,4-3.66,5.65-11.23,10-14.11,8.16-9.39,9.91-15.84,12.83-10.26,4.65-21.06,2.16-25.73,6.82-3.52,3.5-1.23,8.94-6,13.43-4,3.79-11.36,6.38-13.83,7.62-4.34,2.17-11.74,1.68-18.65,3.41-10.12,2.53-9.65,1.14-14.81,1.05C483.59,289.12,474.81,287.27,470.64,289.51Z" transform="translate(-161.16 -10.07)"/>
  </g>
  <g>
    <path id="chere_cecilia_rush15" class="cls-1 branch branch-14" d="M443.6,305.93c.81-2.35-10.77-14.41,4.38-19,3.7-1.11,11.68,3.63,14.5.1,6.36-8,10.43-5.87,24-11.88,16.07-7.09,14.78-7.16,23.87-13,5.27-3.39,7.63-.47,19.1-2.55,3.56-.64,7.84-8.7,9.26-10.64,3.28-4.5,6.67-2.4,8.71-9.05,1.74-5.71,5-8,14.2-16.37,8.08-7.35,13.74-19.83,17.73-21.61,4.71-2.12,2.82,2.14,4.83-1.05,2.28-3.58-17.22,22.78-11.69,19.35,4.52-2.81,31.15-31.6,38.19-46.43.82-1.72-.48-8.67-2.3-14.84-2-6.92,3.09-13.56,3.35-12.06.91,5.21,2.55,18.51,3.11,16.51,1-3.51,31.74-22.95,30.16-18.15-2.39,7.27-3.11,5.39-9.83,9.85C624.29,162.38,615,176.7,608.49,188c-8.83,15.32-14.78,18-17.82,22.17-7.25,9.84-3.49,2.36-18.4,16.65-3.83,3.68-1.44-3-14.11,10.13-11.52,11.95-8,17-11.83,19.74-9.41,6.7-8.56,10.09-23.89,13.22-33.28,6.8-41.08,17.38-54,26C463.13,299.49,443.08,307.44,443.6,305.93Z" transform="translate(-161.16 -10.07)"/>
  </g>
  <g>
    <path id="chere_cecilia_rush14" class="cls-1 branch branch-13" d="M567,115.57c1-1-4.63-4.15-4-3.37,1.13,1.39-.64,16.67-3.58,23.8-1.81,4.4-.62,6-3,14.11-1.83,6.39-5.57,7-7.58,9.69-3.76,5.09-3.51-2.88-7.37,2.1-2.62,3.39-3.4,6.79-5.09,13.79-1.57,6.52-1.32,19.92-2.64,26.18-1.17,5.52-4.75,7.47-11,15.76-7.08,9.39-7.06,8.5-9.65,11-5.47,5.32-2.2,1.5-9.47,8.31a50.84,50.84,0,0,0-8.33,9.92c-2.18,3.67-5.69,5.62-8.38,8-1.36,1.21-2.49,1.7-6.31,3.8s-6.23,4.25-7.83,5.17c-6.8,3.89-9.05,6.32-16,11.16-3.82,2.65-4.66,7.68-7.08,10.38s-16.21,10.38-15,11.65c1.39,1.51,29.51-15.23,30.74-15.92,5.39-3,7.06-3.64,8.43-5.21a141.79,141.79,0,0,0,19.51-13.83c9-7.33,14.56-10.32,18-14.28,3-3.55,1.9-4.5,6.26-10.47,9.61-13.16,4.82-2,11.22-12.24,3.81-6.08,5.56-4.53,9.79-11,4.12-6.32,6.13-16.77,7.06-21.37s4.48-7,6.13-9.77c2.8-4.68.32-4.76.16-5.47s-6.69,10.51-8.32,8c-.52-.78-3.88-4,3-14.55,4.55-7,11.74-11.6,13.6-15.23,2.87-5.61,2-13.1,3.81-14.55,3.32-2.7-3.11-4.57,7.08-4.37,6.88.13,8.16,1,12.65-1.92s6.59-3.14,5.6-4.33,0,0-3.36-1.44c-.44.23-5.43,7.29-7.29,5-1.66-2.05,3.92-14.29,4.5-15.08,5-6.74,6.62-10.52,7-9.49.21.53-2.55-1.86-3.76-.4-4.07,4.91-9.73,19.21-13.6,22.15-2.17,1.65-2.81,3.59-5.89,2.76C561.94,132.73,564.56,118,567,115.57Z" transform="translate(-161.16 -10.07)"/>
  </g>
  <g>
    <path id="chere_cecilia_rush13" class="cls-1 branch branch-12" d="M437.12,247.36c6.12-8.19,9.6-9.54,14.44-15.39,6.38-7.73,16.67-16.15,17.44-18.74,3.73-12.45,6.95-10.65,11.53-21.81,1.48-3.6-11.59-14-5.88-18.15,6.19-4.48,2-6.15,8-8.32,11.32-4.1,8-3.41,13.82-4.37,1.2-.2-5.23-27.84-4.37-28.52,3.11-2.45,2.23,2.14,4.55,4.81,1.34,1.55,1.37,19.89,4.32,21,1.92.7,8.88-4.55,10.74-7.07,3.17-4.32,4.67-12,7.66-12.57,1.36-.25-1.34,4.58-1.24,6,.17,2.49-5.23,9-16.58,20.94-3.59,3.78-13.18,3.53-18.18,8.29-6.15,5.85.82,3.45,1.53,7.1,1,5.12,1.32,4.16.87,13-.31,6.07-.19,7.33-.25,8.8-.13,3.25-7.61,1.89-6.32,9.66,1,6-1.69,9-2.61,10.66-2.37,4.27.5,2.48-5.85,5.55-1.94.94-2.44,0-5,3.13-2.35,2.87-3.29,6.22-9.21,14.38-3.3,4.54-4.36,6-6.73,8.92s-6,3.91-7.06,8.4c-2,8.31-9.58,12.85-24.75,21.93-1.68,1,1.07-6.13.33-6.75a3.88,3.88,0,0,1-.84-5.23c3.76-6,3.87-5.26,9.94-14C431.57,253,434.62,250.71,437.12,247.36Z" transform="translate(-161.16 -10.07)"/>
  </g>
  <g>
    <path id="chere_cecilia_rush12" class="cls-1 branch branch-11" d="M474.68,44.35c-1.11.72,12.71,13.75,16.86,23.86,3.87,9.46.33,8.29,1.61,12.74.79,2.76,1.37,7.14,2.54,15.9.9,6.74,1,8.59,0,10.81s-2.15,2.67-6.36,7a106.78,106.78,0,0,0-7.63,8.91c-3.92,5.16-5.88,7.75-7,11.44-1.64,5.39.2,6.66-1.91,11.45-.77,1.75-2.49,5.67-6.36,7.64s-5.75,0-8.9,1.91-4.19,5.58-5.09,8.9c-1.3,4.8-.38,6.37-.64,15.9-.16,6-.26,9.08-1.27,12.09-.32.94-.73,2-5.73,10.17-4.51,7.41-5.12,8.09-6.36,10.82-1.54,3.4-2.7,5.94-3.18,9.54-.77,5.81,1.09,7.84,0,12.72a21.32,21.32,0,0,1-3.81,7.63c-2.95,4.35-9.75,3.53-11.65,6.87-1.81,3.17-1.32,8-3.33,14.17-1.56,4.82-2.7,18.65-2.22,19.05,1.11.91,15.28-21.52,20.74-30.89a48.27,48.27,0,0,0,5.27-13.65c1.81-7.63.44-9.24,2.4-17.25a51.51,51.51,0,0,1,4.79-12.93c3.35-6.2,5.23-6.36,8.14-12.46a34.41,34.41,0,0,0,3.6-11.74c.49-4.75-.64-5.08-.48-12.93.15-7.38,1.2-10.08,3.11-11.26.94-.58,1.25-.28,2.88-1a14.5,14.5,0,0,0,6-5c1.54-2,2.63-4,5.51-11.26C478.39,138,479,136,481,132a23.53,23.53,0,0,1,4.08-6.22,21.4,21.4,0,0,1,5.27-4.08,25,25,0,0,1,5.51-2.15c4.09-1.2,11-7.47,13-8.43,5-2.38,7.48,4.23,6.13-.44-1.28-4.46-2.7-4.15-2.83-4.31-.43-.48-3.78,1.74-7.67,4.31-1.06.71-2.13,1.44-4.31,2.88-4.15,2.73-4.7,3-4.79,2.87-.28-.33,4.39-3.16,7.18-8.86,1-2.14,1.5-4.3,2.4-8.62,1.32-6.36.68-7,1.92-11,1.47-4.8,7.06-9.49,6.35-10.09s-5-2.16-6.79,0c-.6.72-4.54,10.1-5.59,16.54-.83,5.1-.25,5.72-.68,5.76-.72.08-2.76-6.85-3.12-14.85a113.91,113.91,0,0,1,.48-13.89c-1-3.21-12.4-19.88-16-24.65C478.69,43.12,475.92,43.54,474.68,44.35Z" transform="translate(-161.16 -10.07)"/>
  </g>
  <g>
    <path id="chere_cecilia_rush11" class="cls-1 branch branch-10" d="M442.51,82.36c-.77-.06-2.21-6-1.5,1,.16,1.55,3.19,14.18,4.82,20.67,1.87,7.44.81,9.69,1.27,12.21a63.15,63.15,0,0,1,1.3,13,41.92,41.92,0,0,1-1.95,13.67c-2.45,7.2-5.07,6.89-7.82,14.32a47.35,47.35,0,0,0-2.6,14.32c-.34,6.23.62,6.95,0,12.37a47,47,0,0,1-3.26,12.37c-2.6,6.57-4.59,7.88-7.81,14.32s-1.67,6.09-5.21,14.33c-3.18,7.42-7.59,9.94-7.4,14.31.18,4,2.81,38.93,5.23,39.2,1.92.21,5.43-33.25,6.68-35.14,2.94-4.44,5.73-6.46,6.1-8.71,2.23-13.61-1.41-16.73.58-22.36,1.92-5.43,3.29-4.37,7-12.2a61.51,61.51,0,0,0,5.23-16.26c1.2-7.22-.18-7.75.87-17.72a107.72,107.72,0,0,1,2.61-14.81c2.59-10.17,4.12-9.4,4.65-15.1.75-8.12-2.23-11.14.58-16,.92-1.58,6.7-5.46,10.69-10.6,4.74-6.1.39-5.53.46-4.12,0,.74-5.76,7.74-9.89,9.26-1.47.55-1.82-.21-4-6.85-1.81-5.61,2.06-5.14,3-6.57,1.7-2.62,13.9-11,14.27-13.86,1.15-9.06.14-12.43,2.1-17.38.49-1.23-1.89-9.4-2.21-9.58-.53-.31-.13,22-5.69,28.86-.9,1.11-9.26,9.73-9.85,9.32s5.63-11,6.21-17c.25-2.62-1.55.94-2.14.86-.79-.12-.15,3.67-3.64,10.81-1.72,3.52-4,4.06-4.86,3.93C443.92,96.86,443.74,82.45,442.51,82.36Z" transform="translate(-161.16 -10.07)"/>
  </g>
  <g>
    <path id="chere_cecilia_rush10" class="cls-1 branch branch-9" d="M438.72,13.86c-.12-.2,1,13.05,2.58,17.21,1.15,2.92-3.71,16.66-3.65,17.64.09,1.5-4.58,14.29-4.91,15.53a20.3,20.3,0,0,1-1.41,3.67c-1.52,3.07-2.31,3.17-3.95,6.2a16,16,0,0,0-2,4.8c-.53,2.62,0,4.36-.56,4.51s-1.08-1.73-3.1-4.23-.75-7.89-.44-8.76c.25-.7,4-11.62,5.17-12.47,2.17-1.64-.72-.28-1.09-2.58-.2-1.31.6-9.87,0-9.9-.9,0-6.37,21.33-6.74,23.55a33.1,33.1,0,0,0,0,12.13,41.92,41.92,0,0,0,1.69,6.21A27.94,27.94,0,0,1,422,92.16,20.08,20.08,0,0,1,422.3,97a52.32,52.32,0,0,1-.56,5.93c-.77,6-.9,5.86-.85,7.05a21.9,21.9,0,0,0,1.41,6.48c.8,2.3,1.12,2.28,2.26,5.36,1,2.63,1.45,4,1.41,5.64,0,.85-.14.7-1.13,4.52s-1.07,4.72-2,5.35c-1.23.86-2.37.2-3.11,1.13-.61.78-.38,1.94,0,3.39a48,48,0,0,0,2.26,6.48c1.28,3.09.29,5.27-.56,10.72-1,6.7-.14,7.18-.85,13.82C419.14,186.61,415,187,413.28,201c-.5,4.11-.5,7-2.26,11.28-1.52,3.68-2.9,4.79-4.23,9a31.81,31.81,0,0,0-1.41,8.46c-.11,2.6.09,4.75,1.69,13,1.82,9.29,2.07,9.15,2.54,12.69.43,3.23.36,4.46.56,13,.39,16.07.77,17.78,1.7,18.05,1.84.54,5.48-4.76,7.61-9.87,6.88-16.47-.11-35.22-.56-36.38a43.58,43.58,0,0,1-3.39-11.84c-.45-3.74-.95-7.8.85-12.13,1.72-4.13,3.58-3.81,5.92-9a22.09,22.09,0,0,0,2.26-8.75c.12-4.21-1.28-4.92-.85-8.46.39-3.22,1.65-3.5,3.39-7.89A34.59,34.59,0,0,0,429.35,170c0-4.9-1.27-4.16-1.69-10.15-.53-7.54,1.39-9.4-.56-13.54-1.23-2.61-2.73-3.44-2.54-5.64.05-.55.21-1.33,3.1-5.64,2.16-3.22,2.51-3.45,2.82-4.51.7-2.4-.14-4.47-.85-6.49a112.18,112.18,0,0,1-2.82-11.56c-1.46-7,.95-6.74.57-19.46-.16-5.25-.63-7.52.84-10.72,1-2.06,2.43-3.63,5.36-6.77,4.3-4.59,5.07-4.34,7.05-7,3.36-4.56,25.88-57.72,24.86-58.37-.77-.49-6.09,5.82-6.76,6.34s-5.19,11.76-9.16,20.65c-1.52,3.39-.57,10-9,20.3-.28.35,5.42-25.34,3.55-30.19C442.73,23.66,442.33,19.67,438.72,13.86Z" transform="translate(-161.16 -10.07)"/>
  </g>
  <g>
    <path id="chere_cecilia_rush9" class="cls-1 branch branch-8" d="M396.82,276.21c.73,4.4,7.6-33.77-4.47-42.66-1.56-1.15-7.48-4-6-7.58a69.79,69.79,0,0,1,3.3-7.52c1-1.82-3.52-12.28-2.66-15.44.35-1.3,8-11.88,8.44-15.11,1.22-8.49-1.38-4.22-2.85-2.54-.61.71-6.9,10.34-7.2,9.54-1.5-4,3.93-13.46,3.1-20.31-.71-5.88-1.69-5.61-4.1-16a137.52,137.52,0,0,1-2.67-14.36c-.61-4.81.06-4.53-.68-17.82-.69-12.29-1.37-13.65-.55-17.26,1.17-5.12,3.94-14.8,1.47-18.79-2.61-4.2-.75-7.19-2.45-9.27a3.68,3.68,0,0,0-2.34-1.28s.64,7.3,2.88,11c.72,1.18.83,3.31.8,6.45a17.13,17.13,0,0,1-1.19,5.48l-1.21,5.07C377.66,106.47,377,98,377,98c-1.56-3.42.9-8.09.1-7.94-1.66.32-1.77-.87-2.77,1.38-.81,1.83.71,8.81,1.22,10.76s-2.71-3.54-1.54-.1c.46,1.36,2,5.56,2.31,6.44a35.13,35.13,0,0,1,1.44,5.75c.19,2.72-.65,2.89-.41,6.15.07,1,.47,1.83,0,2.67s.12-.68-.7-.9c-1-.28-4.61-5.83-4.61-5.83s.72,3.12.48,3.09a5.36,5.36,0,0,1-2.35-1.07c-.67-.54.16-4.39-.21-8-.13-1.3.49,1.58-1.46-3.09-.66-1.57-2.54-4.9-3.28-6.38a1.48,1.48,0,0,0-2.17-.56c-.68.43,1.35,4,1.58,4.49,1.09,2.41,2.45,3.33,3,5a12.11,12.11,0,0,1,.7,5.17c-.22,4.79.18,4.77.62,5.25.76.81,1,.52,2.88,1.64,1.61,1,4,2.42,4.92,4.72.57,1.42,0,1.66,0,5.33,0,2.66.34,2.82.62,6.57.3,4.07-.08,3.85.2,7,.4,4.37,1.19,7.94.62,7.39-.91-.88-1.93-3.51-2.8-3.92-.65-.31-2.59-1.83-1.67.22,2.95,6.58,4.68,11,4.78,11.76.25,1.78,2.8,4.76,3.73,6.72,1.27,2.66.79,2.74,1.92,4.15.94,1.17-.41,1.23.43,2.45s.19,2.46.37,3.41c.66,3.47-4.79,2.35-4.61,3.92.33,3-.62,6.25,0,9.29,1.07,5.28.33,8.21.23,11-.17,5,5.42,6.24,2.95,15.87-2.3,9-1.85,6.64-2.3,9h0c4.87,3.65.71,13.16,2.25,15.24C398.15,261.69,393.05,253.25,396.82,276.21Z" transform="translate(-161.16 -10.07)"/>
  </g>
  <g>
    <path id="chere_cecilia_rush8" class="cls-1 branch branch-7" d="M305,65.26c-.36,0-4.68-.94-3.6,3.67.47,2,2.86,9.63,4.52,11.6,1,1.19,2.86,1.55,3.71,2.22,1.91,1.51,1.69,3.28,2.44,4,1,1,.48,0,1.57,4.57s1.53,5.79.79,6.88c-.85,1.26-.4,2.65-.38,3.45,0,1.08-.73-1.16-1.68-1.45-1.21-.36,0,0-1.79-1.11-1.17-.72-1.19-1.15-1.62-1.23-1.86-.39-1.85-.92-2.07-.79-.69.43-1.68,1.94-.75,2.29,2.9,1.1,5.56,2.92,9.08,7.84,1.43,2,1.9,2.15,2.92,4a28.45,28.45,0,0,1,2.11,5c.8,2.69.58,3.63,1.59,4.5.67.58,1,.32,3.18,1.06a26.36,26.36,0,0,1,4.23,1.85,26,26,0,0,1,3.45,2.38c1.78,1.38,3.86,3.11,4.76,4,3.64,3.51,2.52,7,5.56,13.23,2.43,5,3.57,3.55,7.68,10.32,3.6,6,2.21,6.2,5.55,11.12,2.91,4.29,5.25,6,5.3,9.53,0,2-.73,2.45-1.32,5-1.28,5.57-.83,11.58-.86,16.68,0,7.56-3.67,4.66-2.85,10.85.4,3,1.76,2.5,5.56,9.8a53.15,53.15,0,0,1,4.76,11.91c.68,2.64.5,3,1.59,10.06,1,6.73,1.56,10.1,1.85,10.85,3.26,8.19,10.18,8.2,12.18,16.15.87,3.45.22,6,1.32,6.35,1.45.42,4.87-3.26,5.3-7.41.32-3.12-1.26-4.51-7.68-15.09,0,0-1.83-3-5.29-10.06-1.6-3.26-2.75-5.81-2.12-8.73.41-1.9,1.15-2.05,1.32-3.71.3-2.79-1.55-4.45-4-8.21a38,38,0,0,1-5-10.85,29.54,29.54,0,0,1-.79-8.73c.4-6.8,2.83-7.18,3.18-11.92.61-8.56-5.13-11.08-5.73-22.85-.14-2.72-1.69-2.93-1.95-5.74s-1.07-7.51-5.29-14.82c-1.12-1.93-1.56-2.45-10.06-13.24-7.83-9.91-8.59-10.92-10.86-12.44-4.64-3.11-6.62-2.4-9.53-5.82a16,16,0,0,1-3.68-9,25.88,25.88,0,0,1-.4-5.59c0-1-.94-5.23-.68-7.66s.6-3.84.79-5a24.18,24.18,0,0,0-.53-9.79c-.06-.17.56-2.35-.28-3.57s-2.63-1.15-3.06-.12c-.13.32.69.9.7,9a57,57,0,0,1-.27,6.09c0,.51-.41,4.25-.79,4.24s-.17-4.26-2.24-9c-.72-1.63-2.48-4.53-5.08-5.85-2-1-.74.48-2.25-.32C303.39,73.52,305.47,65.23,305,65.26Z" transform="translate(-161.16 -10.07)"/>
  </g>
  <g>
    <path id="chere_cecilia_rush7" class="cls-1 branch branch-6" d="M258.3,96.93s4.34,2.47,10.55,11c4.85,6.67,7.4,11.86,12.17,14.74,4,2.42,5.13.24,10.52,2.64,7.76,3.44,13.15,11.39,13.16,11.4h0s5.2,2.85,5.49,5.95c.05.55.75,5.46.75,5.46a11,11,0,0,1-1.49,2.69s-1.11-4.15-7.4-8.08c-1.85-1.15-5.43-2.91-7.26-4.22a22.83,22.83,0,0,0-4.22-2c-4.88-1.71-7.76.08-7.85.75-.12.87,5.4-.64,13,5.25,1.27,1,8.2,5.5,9.4,6.81,3.36,3.69,2.89,5.33,5.48,6.67,1.24.64,2.71-.4,3.84,1.12a5.78,5.78,0,0,1,.8,1.5,10.17,10.17,0,0,1,.06,6c-.82,3.75-1.39,4.4-1.74,6.18-.89,4.57,2,5.1,3.09,12.95.62,4.3.12,6.7,2.13,8.5,1.12,1,2.24,1.11,2.9,2.51.84,1.78-.33,2.9.58,4.64.54,1,1.16,1,2.9,2.51a24.68,24.68,0,0,1,3.09,3.29c3,3.51,8.48,10.06,8.76,18.19.14,4-1.06,5.89.55,8.31.37.55.8,1,5,3.88,4.5,3.09,4.79,3.12,5.54,3.87,2.71,2.72,2.86,6.23,3.32,8.87,1.46,8.38,6,7.75,12.19,20.5,4.36,8.91,3.52,12,7.76,15s10.09,3.19,12.74,1.1c3-2.34-.73-5.12-3.32-12.74-1.74-5.1-4.44-4-8.87-9.42a44.75,44.75,0,0,1-8.07-13.28c-1.75-4.73-1.42-6.76-3.93-9.44-1.05-1.12-1.37-1-6.5-4.73s-5.51-4.24-5.9-4.92c-1.81-3.15.4-4.92-.2-9.05-1.17-8.17-11.16-10.84-13.58-18.5a16.46,16.46,0,0,0-2.16-5.12c-1.27-1.87-2.15-2.16-2.76-3.93s-.07-2.49-.79-3.94a6.86,6.86,0,0,0-3-2.76c-4.12-2.63-5.49-8.45-6.69-13.58a40,40,0,0,1-1-7.08c-.45-7,.8-11.37-1.58-13-1.13-.77-2.26-.34-2.95-1.38-.9-1.36.2-3.37.59-4.52,2.19-6.57-8.61-16.25-12-19.29-5.34-4.78-8.31-7.44-12.6-7.48-2.3,0-4.36.72-6.69-.59a8.52,8.52,0,0,1-3.94-5.51c-.95-4.39,2.31-7.1.59-9.84-.75-1.2-1.43-.77-2.36-2.17-1.48-2.22-.13-3.86-1-7.08-.51-1.93-1.06-1.62-3.15-5.51s-2.51-6-2.76-5.91c-.45.13-.14,7.73,3,10.83a4.71,4.71,0,0,1,1.58,2.75c.13,1.06-.34,1.32-.39,2.37-.12,2.1,1.66,2.76,2.36,5.31.44,1.6.39,3.74-.2,3.94-1.39.46-3.93-1.65-9-7.87C260,93.08,258.3,96.93,258.3,96.93Z" transform="translate(-161.16 -10.07)"/>
  </g>
  <g>
    <path id="chere_cecilia_rush6" class="cls-1 branch branch-5" d="M258.3,126c2.84-.62,11,24.14,13.7,32,2.76,8.13-.52,13.78,3.55,25.31,2.47,7,4.55,12.91,9.81,18.22.82.83,1.56,1.43,2.4,2.15,6.21,5.26,9.4,5.88,13.72,9.07s6.54,6.46,9.81,11.21,3.83,6.92,6.31,11.22c3.74,6.46,7.61,10.36,13.32,16.12,6.78,6.84,8.55,6.47,21.73,17.53,9.87,8.27,25.61,20,25,23.26-.54,2.79,10.42,17.41,7.53,17.64-4,.33-19.18-16.2-26.81-24.74,0,0-20.31-15.39-28.14-22.47-9.84-8.91-11.5-8.07-16.12-14-1.72-2.22,3-1.37-4.09-13.25-4.59-7.7-11.2-12.32-12-13.39-3.75-4.81-5.7-5.17-20.33-15.42-12.76-8.94-13.8-10.42-18.23-11.22-7.53-1.34-9.09,2.15-15.93.1-3.49-1-5.5-4.06-13.41-11s-8.88-7.84-7.56-9c1.86-1.6-.25-6.82,1.51-4.26,7.47,10.87,10.53,14.64,12.85,15.15s5.52,5.62,11.91,6.3c4.39.48,9.61-1.52,11.9-2.36,3.46-1.26,8.21,2.73,8.55,1.18.72-3.4-6.57-13.05-10.94-15.2-6-3-11.11-7.22-15.54-9.9-1.33-.81-10.83-3.8-9.58-4.54,2.65-1.57-2-3.63,4.38-2.15.42.1,7.46,4.62,16.39,10.58,5.19,3.47,7.21,5.71,9.47,4.9s6.17,11.4,6.32,8.44C270.8,161.49,268.31,154,255.9,130,255.24,128.69,257.06,126.22,258.3,126Z" transform="translate(-161.16 -10.07)"/>
  </g>
  <g>
    <path id="chere_cecilia_rush5" class="cls-1 branch branch-4" d="M269.27,243.65c3.25,3,10-.9,18.17-.23,2.69.22,9.15-.9,17.64,2.76,2.92,1.26,12.44,10.52,18.71,23.8,1.87,4,6.92,3.94,10.52,7.43,3.86,3.73,7.95,4.59,12,6,4.6,1.59,12.58,3.55,22.88,10.25a56.88,56.88,0,0,1,11.73,11c1.89,2.42-1.5,4.26-1.79,4.76-1,1.62-8.41-.27-14.39-3.78-5.73-3.36-5.32-5.39-12.73-11.55a68.89,68.89,0,0,0-14.62-9.67c-7.93-3.81-9.69-2.51-13-5.89-2.47-2.55-3.43.51-6.19-6.44-2.1-5.3-3.13-9-4.2-10.95-3.95-7.09-11.6-12.57-14.14-13.26-15-4.11-23.19,2.31-34.25-3-5.07-2.44-1,2.57-6-2.56-5.68-5.81-10.92-16-14.06-20.63-2.4-3.52-.62-3.67.55-4.2,1.47-.66,7.92,22,14.81,21.53,4.37-.31.52-2.07,1.16-7.92.84-7.6-9.67-27.47-8.85-28s2.77-2.27,4.43-.1C261.43,208,265.88,240.5,269.27,243.65Z" transform="translate(-161.16 -10.07)"/>
  </g>
  <g>
    <path id="chere_cecilia_rush4" class="cls-1 branch branch-3" d="M373.09,321.47c.63,1.74-4.88,9.67-7.9,10.89s-14.89-3.28-18.69-4.43c-20.83-6.3-13.84-2.7-16-4.81-3.73-3.64-12.09-10.37-15.76-11.06-3.24-.62-4.55,1.58-8.31,2.26-8.61,1.56-11.74-5.26-12.84-6.39-6.9-7.14-10.59-14.79-16.65-17.42-3.18-1.38-6.36-1-11.34-.38-8.29,1-9.47,3.71-13.61,2.65-1.49-.39-4.42-3-10.2-8.32-5-4.58-5.84-5.54-7.82-5.91-3.36-.61-7.77,1.27-13.66,3-1.49.44-3.59.15-20.55,2.89-2.87.46,4.21-3.25,4.43-4,.15-.52.2-2.37,5.77-2.31,4.84.05,11.62-1.43,13.09-1.6,4.64-.56,4.17-1.1,5.39-1.05,2.71.12-.9-6.51-13-11.46-11.94-4.9-13.39-12.78-20.38-32.85-3.9-11.17-1.88-13.51-1.94-14.26-.16-2-1.36-12.82-.51-12,5.14,5.06,2.92,16.49,8.21,31.26,6.63,18.5,10.82,20.14,17.56,18.6,5.84-1.33,20.64,22.48,22,21.23s-6.31-16.22-8.09-19c-2.53-3.91-5.54-4.9-5.57-7.38,0-1.46-1.9-9.53-1-8.37,14.25,18.06,13.76,27.92,21.58,39.33,6.16,9,14.78,6.44,17,5.76,3.54-1.07,4.2-4.07,8-4.57,4.43-.57,8.34,2.82,10.86,5,5,4.3,3.92,6.33,8.47,10.86,1.35,1.35,6.34,6.32,13.69,7.83,6.63,1.36,8.22-1.52,14.12.43,2.31.76,2.85,1.46,9.78,6.3,6.3,4.4,9.45,6.6,10.65,7.17C350.62,324.49,372,318.49,373.09,321.47Z" transform="translate(-161.16 -10.07)"/>
  </g>
  <g>
    <path id="chere_cecilia_rush3" class="cls-1 branch branch-2" d="M189.45,341.54c.05-1.32,11.53-2.21,20.23-6.77,5.25-2.74,5.58-4.82,10.24-6.06,4-1.06,7.28-.48,12.12.38a41.32,41.32,0,0,1,12.89,4.17c6.06,3.21,8.59,6.05,9.85,6.06,2.23,0,4.52.31.24-4.22l-.84-4a4.35,4.35,0,0,0-.89-3.25c-3.25-3.3-9.74-1.53-9.84-2.79-.16-2.11,7.2-.57,7.2-.57s-7.09-6.41-6.1-6.81c.77-.31,8.64,4.7,13.64,14.4,1.09,2.1,1.57,3.68,3.41,4.93.63.42,3.58,2.28,11,.38,5-1.29,6-2.75,11.75-5.31,7.4-3.31,11.4-5.1,15.92-4.17,6,1.24,5.9,5.84,12.13,7.2,2.79.61,3.79-.1,14.78-3,8.11-2.16,12.26-3.26,16.67-3.79.47-.06.22,0,13.27-.38,7.84-.21,10.83-.31,13.26,1.9.33.29,2.83,2.56,2.28,4.54-.65,2.31-5.12,3-19.33,3.79-21.94,1.17-22.27,0-27.67,1.9-6.08,2.11-8.81,4.66-13.26,3.41-3.59-1-4.14-3.31-10.23-6.44-3.8-2-6.36-3.27-9.48-3-4.95.37-6,4.23-11.37,7.21-4.94,2.75-9.86,2.47-19.71,1.89-8.93-.52-14.36-.84-20.46-4.17-4.41-2.41-7.22-5.33-9.85-4.17-2.37,1-4.66,7.29-8.5,9.86-5.27,3.53-2.25.69-7.66,3.3-6,2.9-5.51,3.86-5.45,1.62,0-1.18,5-4.45,6.67-5.14,6.94-3,8.92-4.41,10.69-10,.7-2.24-5.36-2.28-5.84-2.76-1-1-19.32,10.62-29.32,11.46C188,343.41,189.41,342.64,189.45,341.54Z" transform="translate(-161.16 -10.07)"/>
  </g>
  <g>
    <path id="chere_cecilia_rush2" class="cls-1 branch branch-1" d="M162.26,348.52c1.82-.8,7,20.13,14,24.27,2,1.17,6,5.33,10.61,6.73.22.07,4.32-.41,4.74-.29a28.65,28.65,0,0,0,11.3,1.25c2.74-.34,4.6-.57,4.86-1.53.41-1.52.75-1.65-6.58-7.48-5.78-4.61-10.82-7.73-10.52-8.59.38-1.11,2.46-1.61,4.1-1.37,2.72.4,3.52,2.75,7.18,6.5a42,42,0,0,0,7.18,5.81c3.46,2.31,3.44,5,8,6.51,3.35,1.14,7.61,1.77,10.43.33,1-.5,7.08,1.86,9.56-1.2,2.09-2.57,2.52-1.29,3.84-1.87,3.41-1.53,5.42,2.18,10.94,2.05,3.9-.1,6.91-2,9.58-3.76,3.8-2.46,4-3.91,6.84-6.16,5.54-4.37,8.65-1.93,17.1-5.47,7-2.92,5.63-4.91,13.68-8.55,6.79-3.07,7.65-1.62,14-4.79s6.35-5.08,12.31-7.52c4.47-1.83,14-6.56,18.13-7,1.92-.22,31.16-6.61,31.76-4.37.4,1.46-27.62,13.21-29.37,14.14-6.68,3.57-10.07,2.93-19.5,5.47-5.57,1.51-4.51,1.76-15.38,5.13-8.62,2.67-8.24,2.19-11.29,3.42-4,1.63-5.17,2.67-16.07,9.58l-14,8.55c-6.13,3.73-9.25,5.6-11.63,5.81-4.45.39-6.36-1.48-12.31-.68-2.71.36-1.73-1.07-5.48-.17-7.58,1.81-8,2.6-14,2.52-4.48-.05-18.46,4.37-25.09,5.73-6.48,1.32-1.23-1.8-1.35-2.86s3,.36,8.27-1.12c6.82-1.92,9.94-2.14,9.92-2.73,0-1-9-1.83-16.56-1.57-5.17.18-7.19-.48-7.19-.48a20.84,20.84,0,0,1-6.73-.34c-4.21-.37-9.25-4.54-14-8.58s-12.11-18.59-12.29-19.87S161.09,349,162.26,348.52Z" transform="translate(-161.16 -10.07)"/>
  </g>
  <g>
    <path id="chere_cecilia_rush1" class="cls-1 branch branch-0" d="M193.7,423.91c6.52-1.67,4.56-2.06,14.48-2.89,3.71-.31,7.72,3.42,9.95,3.41,5.13,0,6.06-4.13,12.22-4.83,3.55-.41,9.77-3.62,13.36-4.27,4.9-.88,13-13.93,10.8-17.9-.72-1.32-4.75,2-20,1.48-5.68-.21.41-2.71.4-2.93s11.34,0,24.11-3.17c6-1.5,8.2-2.77,14-3.17,7.24-.51,8,1.19,12.06,0,6.36-1.89,10.62-8.75,12.33-11.31.39-.59.81-1.28,1.63-2.65,4.8-8,4.53-10,6.35-11.43,4.94-3.92,8.94-.58,19-2.54,10.51-2,18.91-8.09,21.58-10.15,7-5.41,17.31-16.54,21.63-15.71,2.52.48,5.56,5.31,5.76,7.61.17,1.87-8.08,1.17-12.7,5.4-6.78,6.22-10.68,9.67-10.68,9.67-9.12,7-14.11,9.61-15.63,10-8,1.76-12.79-.79-19.62,1.13-5.25,1.48-2.91,7.25-12.55,17.49a89,89,0,0,1-10.16,9.52c-12.28,9.06-21.82-7-29,.52-3.62,3.77-4.93,11.9-9.39,17.08-3.38,3.93-6.09,3.62-17.91,8.24-14,5.49-11.85,8.4-16.74,7-4.68-1.38-10.66-5.15-14.81-4.41-3.91.7-2.32.85-8,3.7C194.7,429.49,191.82,424.39,193.7,423.91Z" transform="translate(-161.16 -10.07)"/>
  </g>
  <g id="BANDE_SON_010">
    <path class="cls-1 root root-0" d="M285.21,479.35c12.84-6,13.57-8.11,15.25-9.26,8.68-6,10-10.58,15.32-10.46,4.41.09,4.62,3.23,9.34,3.73,6.21.66,8-4.54,19.44-9.34,5.89-2.47,6.12-1.39,12-4.11,7.76-3.63,7.65-5.69,12.33-6.73,6.16-1.37,7,2.07,16.44,1.87,6.76-.14,17.36-5.48,18.61-3.49.92,1.47-8.8,9.4-12.24,12.32-3.66,3.11-9-.66-11.23.2-5.3,2-4.75-1.33-9.83-2-4.73-.63-4.23.31-8.82,2.81-4.15,2.25-3.32.41-7.88,2.88-3.42,1.84-4.67-.62-10.52,1.73-10,4-9.61,7.63-14.89,8.73-3.06.63-5.3-1.93-9.58-2.91-3.62-.84-4.35-1.37-6.62-1.21-3.68.28-6.5,4.28-11.43,9.23-2.41,2.42-4.37,3.43-9,5.82-4.86,2.49-7.34,4.43-17.65,7.22-7.28,2-18.34,4.75-23.46,5.89-9.18,2-6.21.75-6.32-.12-.06-.51,2.81-.91,13.83-4.11,7.32-2.13,10.32-3.19,12.71-4.11C273.82,482.81,281.59,481,285.21,479.35Z" transform="translate(-161.16 -10.07)"/>
  </g>
  <g id="BANDE_SON_09">
    <path class="cls-1 root root-1" d="M298.17,514.61c-1,.31-4.91,5.61-1.09,0,3.09-4.5,3.28-5.29,6.8-10.75,2.34-3.63,3.55-5,6.86-7l5.42-3.1c4.08-2.34,2.46-2.17,2.77-3.56s.4-2.78.94-5.8c.44-2.44,1.13-6.81,4.71-9.9,3.19-2.77,6-3.28,7.6-3.19,5.13.28,5.9,2.83,10.2,2.86,4.56,0,7.73-4.58,9.67-6.47,6.54-6.36,11.27-6.65,15.95-9.53a31,31,0,0,1,12.43-4.17c6.35-.69,13.25.08,13.49,1.71.2,1.43-10.18,6.21-16.49,6.75-7.79.66-12.14,1.13-15.74,3-5.46,2.83-5.11,6-11.67,10-4.64,2.84-6.7,3.89-10.28,3.43-3.42-.44-3.69-2.83-8.46-3.21-2.66-.22-4.47,1.84-5.63,3s-4.91,2.53-2.92,13.51c.68,3.71,4.94,5.21,5,6.48.05,2.8-.51,5-1.63,9.39-1.24,4.78-1.88,7.21-3.27,9.38-1.87,2.94-2.83,2.66-4.08,4.9-.92,1.64-2.85,8.81-1.35,16.58,1.83,9.54,6,9.74,5,10.35s-.65,1.69-2.35.14c-3.48-3.16-4.92-12-5.35-15-.48-3.26,2.92-13.51,5.55-16.9,3.7-4.78,6.17-19.3,5.57-17.6-.23.65-4.09-5.34-5.32-5.6-3-.62-4.93,2.13-7.36,3.58-3.82,2.27-4.27,1.72-6.21,5.08-3.42,5.91-.37,1.77-2.85,4.48C299.74,512.2,301.8,513.51,298.17,514.61Z" transform="translate(-161.16 -10.07)"/>
  </g>
  <g id="BANDE_SON_08">
    <path class="cls-1 root root-2" d="M383.65,461.16c-2.4.78-9.5,6.1-11.31,9.5-.85,1.6-.92,3.17-2.61,5.23a12.91,12.91,0,0,1-3.74,3c-4,2.21-5.79.7-9.72,2.24-2,.78-3.81,2.51-7.48,6-3,2.84-4.5,4.26-5.61,6.36a13.94,13.94,0,0,0-1.87,8.6c.63,4,4.18-1,6,4,1.37,3.8,2.55,7.47,2.44,10.21-.19,4.88-3.65,9.89-3.17,12.69.19,1.09-.15-2.61,4.5,3.95,3.31,4.67,5.71,12,6.34,11.75.93-.4.32-4.76-1.12-8.23-.88-2.1-1.4-2.29-3-5.61a25,25,0,0,1-2.25-5.6c-.76-3.69,1-4.53,1.5-9.35.41-4.07-.74-4.79-1.5-13.08-.25-2.76-5.27-1.8-5.31-3.16,2.61-6.84,10.86-12.62,13.54-13.67s4.54-.39,9.34-2.24a21.36,21.36,0,0,0,6.73-3.74c2.2-1.88,2.64-3.19,5.24-6.73,2.21-3,7.36-5.21,9.53-7.13,5-4.42,1.62.3,7.06-4.21,2.93-2.44-2.66-5.39-3.24-6.14C392.84,454.41,396.4,457,383.65,461.16Z" transform="translate(-161.16 -10.07)"/>
  </g>
  <g id="BANDE_SON_07">
    <path class="cls-1 root root-3" d="M394.47,464.53c.06-2.33,8-4.46,9.49-3.71,1.33.66-2.2,5.87-2.54,7.1-.56,2-1.46,3-3.11,5.32-2.59,3.61-2.09,3.46-4.21,6.22s-3.16,4.07-4.66,4.66c-2,.78-6,1.54-6.46,2.43s3.19.21,4.24,2.67c.69,1.61,1.5,3.52.89,5.32-.44,1.3-1.13,1.11-2.22,3.11a6.1,6.1,0,0,0-1.11,3.55c.17,1.76-.08,1.06,0,2.68s.38,2.19-.43,3.17a22,22,0,0,1-2.25,2.67c-1.23,1.23-5.75,2.85-6.26,4.26a5.9,5.9,0,0,0,.12,3.65c.66,1.89,10.5,5.71,13.51,8.1,1.33,1.06-.83.25-1.15.77-.48.75-7.23-3.18-11.76-6.44-1.56-1.12-2.83-2.14-3.11-3.77a5.73,5.73,0,0,1,2-4.88c1.76-1.58,3-.73,4.66-2.22,2.32-2.05,2.23-5.55,2.22-5.77-.11-2.48.64-2.82.71-5.16.08-2.69,2.68-2.94,3-3.38,1-1.3-1.36-3.22-1.29-3.89.19-2-4.18-2.6-4.88-5.32s3.64-1.17,5.51-3c3.75-3.64.57-2.95,2.69-5.81C390.77,473.27,394.41,467.22,394.47,464.53Z" transform="translate(-161.16 -10.07)"/>
  </g>
  <g id="BANDE_SON_06">
    <path class="cls-1 root root-4" d="M403.85,462.43c-.69,4.43,1.24,5.23,1.15,9.89-.06,3.37-.62,3-3,11.58-2,7.27.54,8.12.82,9,.84,2.62,2.9-.43,3.73,3.14.55,2.38,1.05,5,1.42,6.32,1.24,4.44-.13,2.7,1.61,4.24a5.89,5.89,0,0,1,1.61,4.14c0,2-.94,2.27-1.38,5.06a13.18,13.18,0,0,0,0,4.14A8.55,8.55,0,0,0,411.9,525c1.79,1.77,1,.7,2.59,1.09s2,0,3.23,4.27c.76,2.74,2.44,3.76,2.85,3.84,1.12.23,1.93-3,3.54-3s2.79,2.27,3.07,4.46c.23,1.74-.39,4.54-1,8-.92,4.86.47,10,1.58,11.87,1.24,2,.63,5.35,3.68,14.54.66,2,1.35,2.87,1.63,2.78s-1.26-9.24-4.07-18.19c-.59-1.89-2.06-6-1.52-9.13a66.5,66.5,0,0,0,.86-6.67c.34-3.76.69-5.28.14-6.23-.88-1.51-1.66-2.85-3.22-3.45-1.82-.7-3,1.36-4.38.54-1-.55-.46-2.16-2.29-5.6a11.93,11.93,0,0,0-2.07-3.21c-1.35-1.29-2.38-1.28-2.52-2.07-.21-1.13,1.82-1.54,2.75-3.45,1.29-2.62-.47-6-1.38-7.82s-1.26-1.72-3.21-4.59c-.7-1-3.33-6.63-3-9,.47-3.28-3.76-.78-3.24-6.2.55-5.71,2.23-6.19,4.53-13.45.88-2.76,9.2-7.22,6.11-12.6-.33-.57-4.35-1.91-6.49-1.7C407.75,460.13,404.27,459.75,403.85,462.43Z" transform="translate(-161.16 -10.07)"/>
  </g>
  <g id="BANDE_SON_05">
    <path class="cls-1 root root-5" d="M416.51,464.59c1-2,6.6-6.37,7.91-6s2.95,5.06,4.29,9.06c1.55,4.62,2.62,4.23,3.7,8a18.28,18.28,0,0,1,.47,9.65c-1,3.85-2.95,4.92-2.27,7,.43,1.31,1.43,1.54,5.1,3.8,4.37,2.7,6.55,4.05,7.54,5.82.89,1.58,1.06,3.57,1.4,7.53.29,3.44,0,4.2.76,5.57.59,1,1.1,1.14,5.09,3.8a29.54,29.54,0,0,1,4.86,3.59,12.87,12.87,0,0,1,2.86,4c1.25,3,.63,5.81.1,8.11-1.2,5.16-4.1,9.8-5,9.5-.66-.24,3.2-3.89,3-10.36-.13-4.7-1.1-5.89-1.38-6.32a18.19,18.19,0,0,0-6.71-6.59c-1.65-1-3.78-.43-5.84-2.72-1.72-1.9-2.73-2.87-2.8-6.3a32.43,32.43,0,0,0-1.39-8.15c-.49-1.56-2-2.13-5.15-4.05-3.53-2.18-4.84-1-6.49-2.37-2.67-2.19-4.67-4-5.32-5.56s-.48-1.24-.13-4.5c.31-2.86-.87-6.23-.11-9C422.76,471.88,414.26,469,416.51,464.59Z" transform="translate(-161.16 -10.07)"/>
  </g>
  <g id="BANDE_SON_04">
    <path class="cls-1 root root-6" d="M425.39,458.59s8.51-1.75,11.3-1.23c1.34.25,4,1.43,4.84,2.52,1.75,2.32,2.64,8.75,3.38,11.14.87,2.82,2.46,7.16,3.21,9.57.43,1.4,1.55,5.67,1.55,5.67s3.33,1.79,4.46,2.35a15.09,15.09,0,0,1,3.09,1.45,31,31,0,0,1,3.71,4.08,7.35,7.35,0,0,1,.27,3,22.42,22.42,0,0,0-.95,4.87c.05.65,1.81,1.31,2.19,1.84a31.48,31.48,0,0,1,1.81,3.77v2.4s.28,4.44,1.24,5.27c.72.63,4.3.24,4.89,1,.41.54.55,2,.88,2.56a6.5,6.5,0,0,0,2.87,2.45c2.21.42,8.29,2.21,8.29,2.21l-1.37.64s-8.54-1.56-9.67-2.25c-1.39-.84-3-3.53-3-3.53s-5.74-1.79-5.74-4.09c0-1.28,0-6.08-2.44-7.41-2.78-1.53-5.14-8.26-4.77-9,.44-.93-2.42-2-3.38-2.36-1.84-.72-6-1-7.6-2.16s-3.6-4.71-4.27-6.54c-.93-2.55-1.74-8-2.62-10.53a60.15,60.15,0,0,0-4.43-9C432,465.52,425.39,458.59,425.39,458.59Z" transform="translate(-161.16 -10.07)"/>
  </g>
  <g id="BANDE_SON_03">
    <path class="cls-1 root root-7" d="M440.91,457.26c.49-1.76,4.62-3.62,6-3.58.43,0,4.29-4.29,5.68-1.56s.4,7.9,1.33,11c1.78,5.87,2,5.14,2.14,7.46.23,2.81-1.06,6.41,0,7.2.88.66.9-.78,3.53-.77a15.75,15.75,0,0,1,5.05,1,26,26,0,0,1,5.6,2.69c2.36,1.37,3.54,2.06,4.44,3.06,1.52,1.69,2.05,3.44,2.76,5.8,1.13,3.78.53,4.65,1.67,7.41,1,2.41,1.58,2,3.07,4.75,2.45,4.52,1.36,6.47,3.64,9.64,1,1.43,2.25,2.26,4.71,3.93A37.72,37.72,0,0,0,500.55,520c6.49,2,5.65,3.24,6.85,5.24,3.89,6.5,1.11,7.57.59,8.55-2.37,4.44-6.49,14-7.43,13.55-.55-.28-4.08,2.89-4.08,2.89s6.65-8.16,7.91-12,2.85-6.65,2.59-7.67c-1.11-4.38-4.18-6.76-6-7.28-4.28-1.2-4.33-1.65-10.2-4.72-3.45-1.8-8.52.26-8.35-2.29.42-6.39-3.82-12.76-6.2-21-2.67-9.24-3.14-7.16-5.28-9.58-3.33-3.78-5.14-.57-12.21-1.14-4.05-.33-7.72-7.13-12.11-14.16C440.92,461.25,440.42,459,440.91,457.26Z" transform="translate(-161.16 -10.07)"/>
  </g>
  <g id="BANDE_SON_02">
    <path class="cls-1 root root-8" d="M459.65,441.07c3.21-2,3.92-1.9,4.29-1.76,1.42.55,1.1,2.69,2.23,5.63,1.3,3.39,3.58,5.39,6.18,7.66a24,24,0,0,0,8.35,5.07,22.47,22.47,0,0,0,5.93,1.17,33.29,33.29,0,0,0,3.56,5.17,18.44,18.44,0,0,0,4.14,4.07c2.59,1.73,3.6,1.1,6.77,2.82a18.82,18.82,0,0,1,4.79,3.67c2.29,2.51,1.79,3.55,4.45,7.48a32.58,32.58,0,0,0,4.61,5.41c2.48,2.46,3.75,3.68,5.13,3.65,2.9-.07,5.78-4.3,5.78-4.3h0s8-.71,8.25.28-6.44,1.27-10.73,6.46c-2.07,2.5-1.84,4-3.67,4.79-3.9,1.66-9.31-3.3-10-3.89-3.28-3-4.78-6.63-6-9.74-2.25-5.6-1.23-6.78-3.22-9s-3.58-1.32-10.32-4.2a73.32,73.32,0,0,1-9.37-5c-3.11-1.87-3-2.06-6.55-4.2-4-2.42-4.43-2.38-8.32-4.73a43.64,43.64,0,0,1-8.06-5.78c-2.66-2.51-4.21-4-4-5.81C454.14,444.55,456,443.39,459.65,441.07Z" transform="translate(-161.16 -10.07)"/>
  </g>
  <g id="BANDE_SON_01">
    <path class="cls-1 root root-9" d="M450.64,452.35c1.87-2.07,6.06-.72,6.46-.58,2.35.79,3.78,8.42,7.16,12.19,4.65,5.2,8.43,4.54,10.84,6.15,1.66,1.11-.39-2.3,5,.82C483.7,473,485.2,480.26,486,481c2.19,2.17,7.41-1,9,4.07,1.68,5.29,4.52,7.46,6.15,10.2.61,1-1.5,7.81,1.3,9.64,2.54,1.66,5.42,5.95,12.46,8.66,6.8,2.62,16.52,5.64,17.45,5.57,6.06-.5,19.74-4.71,20.17-3.91s-7.43,1.55-10.61,3.42c-12.85,7.52-35.73-6.93-41.41-9.38-8.24-3.54-3.45-7-6.49-14.93-1.74-4.53-12.54-13.19-15.25-18s-7.84-2-13.46-5.18c-10.1-5.71-13.78-9-15.25-14C450,456.9,449.14,454,450.64,452.35Z" transform="translate(-161.16 -10.07)"/>
  </g>
  <g id="tree-body">
    <path class="cls-1 dark:fill-gray-400 body-tree" d="M360,325.3c.71-5.34.92-3,3.51-9.27,8.05-19.49,2.88-15.22,2.39-35.33-.16-6.71,5.81-30.79,5.81-30.79,4.37-.64,15.21,17.81,19.58,17.17s2.48-20.4,7-21c9.6,7.22,10.88,14.52,13.28,18.83s20.46,5.75,19.92,11.7c-19.12,14.37-8.72,5.62-11.85,20.6-.5,2.39-7.28,5.16-6.27,5.74,7.61,4.36,30.23-24.2,30.24-12.95,0,19,10.19,13.28,9.3,20.71-1.11,9.3-37.36,38.7-40.28,44.53-.77,1.54,2.56,10.16-.26,14.29-3.41,5-.67,9.92,0,17.15,1.31,14.29,2.25,7.61,4.47,8.67,5.39,2.58-1.11,10.06,6.22,12.9,5.77,2.24,9.75,8.62,12.4,10.54,5.48,4,11.83,12.42,12,14.88.42,5.17,14.25.07,16.47,5.69,3.93,9.91-21.94,22.73-29.09,22.49-15.67-.51-23.35,10.51-43.75,4.67-12.6-3.61-28.93-12.4-28.31-18.75,1.87-19.1,18.59-9.52,18.66-17.93.27-30.52-13.63-48.29-14.2-60-1.12-22.91-7.21-25.29-5.67-29.43C354.53,328.36,359.18,331.64,360,325.3Z" transform="translate(-161.16 -10.07)"/>
  </g>
</svg>